<?xml version="1.0" encoding="UTF-8" standalone="no"?>
<!DOCTYPE svg PUBLIC "-//W3C//DTD SVG 1.1//EN" "http://www.w3.org/Graphics/SVG/1.1/DTD/svg11.dtd">
<svg width="100%" height="100%" viewBox="0 0 693 468" version="1.1" xmlns="http://www.w3.org/2000/svg" xmlns:xlink="http://www.w3.org/1999/xlink" xml:space="preserve" style="fill-rule:evenodd;clip-rule:evenodd;stroke-linejoin:round;stroke-miterlimit:1.41421;">
    <g transform="matrix(1,0,0,1,-96.651,-214.19)">
        <g>
            <g transform="matrix(1.5139,0.236503,-0.236503,1.5139,84.9898,542.999)">
                <text x="0px" y="0px" style="font-family:'RobotoSlab-Regular', 'Roboto Slab';font-size:100px;fill:rgb(32,194,79);">gr</text>
            </g>
            <g transform="matrix(1.5139,0.236503,-0.236503,1.5139,231.87,565.945)">
                <text x="0px" y="0px" style="font-family:'RobotoSlab-Regular', 'Roboto Slab';font-size:100px;fill:rgb(32,194,79);">eenlabs</text>
            </g>
        </g>
        <g transform="matrix(1.08247,0,0,1.08247,153.701,680.516)">
            <g>
                <g>
                    <text x="0px" y="0px" style="font-family:'RobotoSlab-Regular', 'Roboto Slab';font-size:61.588px;fill:rgb(106,106,106);">.farm</text>
                </g>
            </g>
        </g>
        <g>
            <path d="M704.13,342.38C676.71,342.38 669.51,319.76 669.51,319.76C669.51,319.76 676.71,291.31 704.14,291.31C722.99,291.31 753.84,317.03 753.84,317.03C753.84,317.03 722.99,342.39 704.14,342.39L704.13,342.38ZM599.6,233.73C621.2,255.67 608.5,280.35 608.5,280.35C608.5,280.35 582.1,295.43 560.52,273.49C545.78,258.39 541.32,214.19 541.32,214.19C541.32,214.19 584.85,218.64 599.59,233.72L599.6,233.73Z" style="fill:rgb(32,194,79);fill-rule:nonzero;"/>
            <path d="M753.83,317.02C736.69,313.59 719.21,311.54 702.08,313.59C685.28,315.29 668.14,321.47 656.83,333.12C651.01,338.95 646.89,345.8 644.83,353.34C644.49,355.06 644.15,357.11 643.81,358.84C643.47,360.88 643.81,362.24 643.81,364.64L644.51,377.68L646.91,430.11L629.76,430.11L632.51,377.67L633.19,364.63C633.19,362.58 633.53,359.83 633.89,357.43C634.22,355.03 634.91,352.63 635.59,350.23C638.69,340.98 644.49,333.1 651.69,327.27C658.89,321.1 667.12,316.99 675.69,313.91C684.26,311.16 693.17,309.79 702.09,309.45C719.57,308.75 737.05,312.19 753.84,316.99" style="fill:rgb(32,194,79);fill-rule:nonzero;"/>
            <path d="M541.32,214.2C559.15,225.16 575.6,238.87 589.99,254.3C604.39,269.72 617.41,286.5 628.03,305.02C633.17,314.28 638.31,323.88 641.4,334.84C642.1,337.59 642.78,340.34 643.12,343.41L643.46,351.65L644.16,367.42L646.89,430.15L629.74,430.15L632.49,367.08L633.17,351.32L633.51,347.55L633.51,343.77C633.51,341.72 633.17,339.32 632.49,336.92C630.43,327.32 626.32,317.72 621.52,308.47C612.26,289.97 600.27,272.82 586.9,256.71C573.9,240.61 558.8,226.21 541.32,214.21" style="fill:rgb(32,194,79);fill-rule:nonzero;"/>
        </g>
        <g>
            <g>
                <g>
                    <g transform="matrix(0.9966,0,0,0.9966,-70.203,-2205.53)">
                        <circle cx="684.5" cy="2643.5" r="14.5" style="fill:rgb(194,126,32);"/>
                    </g>
                    <g transform="matrix(0.7817,0,0,0.7817,91.554,-1633.44)">
                        <circle cx="684.5" cy="2643.5" r="14.5" style="fill:rgb(194,126,32);"/>
                    </g>
                    <g transform="matrix(0.7817,0,0,0.7817,91.554,-1648.68)">
                        <circle cx="684.5" cy="2643.5" r="14.5" style="fill:rgb(194,126,32);"/>
                    </g>
                    <g transform="matrix(0.7817,0,0,0.7817,112.96,-1645.94)">
                        <circle cx="684.5" cy="2643.5" r="14.5" style="fill:rgb(194,126,32);"/>
                    </g>
                    <g transform="matrix(0.7817,0,0,0.7817,108.91,-1637.36)">
                        <circle cx="684.5" cy="2643.5" r="14.5" style="fill:rgb(194,126,32);"/>
                    </g>
                    <g transform="matrix(0.56983,0,0,0.56983,268.45,-1076.32)">
                        <circle cx="684.5" cy="2643.5" r="14.5" style="fill:rgb(194,126,32);"/>
                    </g>
                    <g transform="matrix(0.56983,0,0,0.56983,264.18,-1069.9)">
                        <circle cx="684.5" cy="2643.5" r="14.5" style="fill:rgb(194,126,32);"/>
                    </g>
                    <g transform="matrix(0.56983,0,0,0.56983,249.347,-1067.06)">
                        <circle cx="684.5" cy="2643.5" r="14.5" style="fill:rgb(194,126,32);"/>
                    </g>
                    <g transform="matrix(0.56983,0,0,0.56983,247.04,-1094.44)">
                        <circle cx="684.5" cy="2643.5" r="14.5" style="fill:rgb(194,126,32);"/>
                    </g>
                    <g transform="matrix(0.40866,0,0,0.40866,389.843,-645.39)">
                        <circle cx="684.5" cy="2643.5" r="14.5" style="fill:rgb(194,126,32);"/>
                    </g>
                </g>
                <g transform="matrix(0.160302,0.987068,-0.987068,0.160302,940.279,-350.596)">
                    <g>
                        <g>
                            <g transform="matrix(0.878044,0,0,1,75.4204,0)">
                                <path d="M775,453.191L743,453.191L748,366.336L770,366.336L775,453.191Z" style="fill:rgb(106,106,106);"/>
                            </g>
                            <g transform="matrix(1.04093,0,0,1.04093,-30.3641,-18.5491)">
                                <circle cx="741.856" cy="453.191" r="13.496" style="fill:rgb(106,106,106);"/>
                            </g>
                        </g>
                    </g>
                </g>
                <g transform="matrix(-0.362102,0.932138,-0.932138,-0.362102,1255.79,-48.385)">
                    <g>
                        <g>
                            <g transform="matrix(1.20397,0,0,1,-328.853,64.5524)">
                                <path d="M871,439.143L841,439.143L844.381,352.263L867.619,352.263L871,439.143Z" style="fill:rgb(106,106,106);"/>
                            </g>
                            <g transform="matrix(1.04093,0,0,1.04093,-70.4724,-53.5491)">
                                <circle cx="741.856" cy="453.191" r="13.496" style="fill:rgb(106,106,106);"/>
                            </g>
                        </g>
                    </g>
                </g>
            </g>
            <g>
                <path d="M247.03,400.52L254.5,355.52L504.2,404.16L499.06,435.13L247.03,400.53L247.03,400.52Z" style="fill:rgb(106,106,106);"/>
                <g>
                    <g transform="matrix(0.59167,0,0,0.59167,-694.965,-1000.77)">
                        <circle cx="1551.06" cy="2321.06" r="64.06" style="fill:rgb(106,106,106);"/>
                    </g>
                    <g transform="matrix(0.32988,0,0,0.32988,-288.907,-393.143)">
                        <circle cx="1551.06" cy="2321.06" r="64.06" style="fill:white;"/>
                    </g>
                    <g transform="matrix(0.17245,0,0,0.17245,-44.73,-27.728)">
                        <circle cx="1551.06" cy="2321.06" r="64.06" style="fill:rgb(106,106,106);"/>
                    </g>
                </g>
                <g>
                    <g transform="matrix(0.47,0,0,0.47,-205.253,-667.044)">
                        <circle cx="1551.06" cy="2321.06" r="64.06" style="fill:rgb(106,106,106);"/>
                    </g>
                    <g transform="matrix(0.26204,0,0,0.26204,117.286,-184.376)">
                        <circle cx="1551.06" cy="2321.06" r="64.06" style="fill:white;"/>
                    </g>
                    <g transform="matrix(0.13698,0,0,0.13698,311.25,105.86)">
                        <circle cx="1551.06" cy="2321.06" r="64.06" style="fill:rgb(106,106,106);"/>
                    </g>
                </g>
            </g>
        </g>
    </g>
</svg>
