<?xml version="1.0" standalone="no"?>
<!DOCTYPE svg PUBLIC "-//W3C//DTD SVG 20010904//EN"
 "http://www.w3.org/TR/2001/REC-SVG-20010904/DTD/svg10.dtd">
<svg version="1.0" xmlns="http://www.w3.org/2000/svg"
 width="270.000000pt" height="270.000000pt" viewBox="0 0 270.000000 270.000000"
 preserveAspectRatio="xMidYMid meet">
<metadata>
Created by potrace 1.11, written by Peter Selinger 2001-2013
</metadata>
<g transform="translate(0.000000,270.000000) scale(0.100000,-0.100000)"
fill="#000000" stroke="none">
<path d="M725 1988 c31 -173 64 -265 121 -328 70 -77 172 -106 267 -76 l48 14
33 -51 c54 -84 123 -228 145 -303 20 -67 20 -77 8 -294 l-12 -225 -32 -3 c-20
-2 -41 -13 -55 -30 -13 -15 -31 -26 -40 -24 -46 9 -120 -72 -104 -114 6 -16
13 -19 -189 70 -112 50 -134 63 -160 99 -64 89 -193 114 -284 54 -22 -15 -49
-27 -58 -27 -10 0 -106 17 -213 39 l-195 38 -3 -120 c-1 -66 -1 -121 1 -123 2
-2 90 -16 195 -30 l192 -27 19 -32 c56 -95 182 -128 281 -73 l36 19 258 -76
259 -77 290 66 c160 37 292 68 294 70 2 2 -1 34 -8 70 -9 54 -14 66 -28 62 -9
-2 -44 -8 -78 -11 -48 -5 -67 -3 -84 8 -12 9 -28 13 -35 10 -8 -3 -14 1 -14
11 0 8 -11 23 -25 32 -14 9 -25 25 -25 35 0 27 -35 59 -65 59 -19 0 -25 5 -25
23 -1 12 -5 93 -10 181 -9 175 -3 215 44 287 24 35 119 119 134 119 4 0 19
-18 35 -40 38 -54 116 -91 196 -92 53 -1 73 5 144 40 87 43 197 117 197 132 0
15 -180 128 -239 151 -121 45 -228 11 -297 -96 -26 -41 -48 -62 -86 -81 -28
-14 -72 -47 -99 -74 l-48 -48 -17 51 c-21 68 -94 205 -152 287 l-46 65 -1 100
c0 110 -13 148 -74 213 -53 57 -209 116 -357 137 l-51 7 12 -74z m-85 -1283
c42 -21 60 -53 60 -103 0 -37 -6 -50 -34 -78 -28 -28 -41 -34 -78 -34 -50 0
-82 18 -103 60 -52 101 54 207 155 155z"/>
<path d="M546 644 c-36 -35 -6 -104 44 -104 20 0 60 41 60 61 0 49 -69 78
-104 43z"/>
</g>
</svg>
