<?xml version="1.0" encoding="UTF-8" standalone="no"?>
<!DOCTYPE svg PUBLIC "-//W3C//DTD SVG 1.1//EN" "http://www.w3.org/Graphics/SVG/1.1/DTD/svg11.dtd">
<svg width="100%" height="100%" viewBox="0 0 64 64" version="1.1" xmlns="http://www.w3.org/2000/svg" xmlns:xlink="http://www.w3.org/1999/xlink" xml:space="preserve" style="fill-rule:evenodd;clip-rule:evenodd;stroke-linejoin:round;stroke-miterlimit:1.41421;">
    <path d="M57.6,13.7C56.9,12.7 56,12 54.9,11.5C51.5,9.8 43.3,10.2 42.6,5.8C41.7,0.1 36.7,5.9 35.8,5.9C34.7,5.9 34.2,2 32.1,2C29.9,2 29.4,5.9 28.4,5.9C27.5,5.9 22.5,0.1 21.6,5.8C20.9,10.1 12.6,9.8 9.3,11.5C8.3,12 7.3,12.7 6.6,13.7C6.1,14.5 7.2,15.3 7.8,14.6C9.4,12.6 12.6,12.2 14.9,11.8C16.8,11.4 18.9,11.2 20.8,10.4C23.4,9.4 23.3,5.5 24.1,5.5C24.7,5.5 26.8,8.5 28.6,8.5C30.2,8.5 31.2,4.8 32.1,4.8C33,4.8 34,8.5 35.6,8.5C37.5,8.5 39.6,5.5 40.2,5.5C41,5.5 40.9,9.4 43.5,10.4C45.3,11.2 47.4,11.4 49.4,11.8C51.7,12.3 55,12.6 56.5,14.6C57,15.3 58.1,14.4 57.6,13.7" style="fill:rgb(6,196,72);fill-rule:nonzero;"/>
    <path d="M53,57C53,59.8 50.8,62 48,62L16,62C13.2,62 11,59.8 11,57L11,36L53,36L53,57Z" style="fill:rgb(6,196,72);fill-rule:nonzero;"/>
    <path d="M32,12C16.5,12 11,20.5 11,36L11,57L53,57L53,36C53,20.5 47.5,12 32,12" style="fill:rgb(182,196,167);fill-rule:nonzero;"/>
    <g>
        <path d="M11,55C9.9,55 9,53.8 9,52.4L9,45.6C9,44.2 9.9,43 11,43L11,55" style="fill:rgb(137,150,122);fill-rule:nonzero;"/>
        <path d="M53,43C54.1,43 55,44.2 55,45.6L55,52.4C55,53.8 54.1,55 53,55L53,43" style="fill:rgb(137,150,122);fill-rule:nonzero;"/>
    </g>
    <g>
        <path d="M7,20L5,20L5,50L9,50L9,48L7,48L7,20Z" style="fill:rgb(62,67,71);fill-rule:nonzero;"/>
        <path d="M57,20L57,48L55,48L55,50L59,50L59,20L57,20Z" style="fill:rgb(62,67,71);fill-rule:nonzero;"/>
    </g>
    <circle cx="58" cy="20" r="4" style="fill:rgb(6,196,72);"/>
    <circle cx="6" cy="20" r="4" style="fill:rgb(6,196,72);"/>
    <path d="M21.5,39.5C17.1,39.5 13.5,35.9 13.5,31.5C13.5,27.1 17.1,23.5 21.5,23.5C25.9,23.5 29.5,27.1 29.5,31.5C29.5,35.9 25.9,39.5 21.5,39.5" style="fill:rgb(239,255,217);fill-rule:nonzero;"/>
    <circle cx="21.5" cy="31.5" r="6" style="fill:rgb(84,91,97);"/>
    <circle cx="21.5" cy="31.5" r="2.3" style="fill:rgb(6,196,72);"/>
    <path d="M42.5,39.5C38.1,39.5 34.5,35.9 34.5,31.5C34.5,27.1 38.1,23.5 42.5,23.5C46.9,23.5 50.5,27.1 50.5,31.5C50.5,35.9 46.9,39.5 42.5,39.5" style="fill:rgb(239,255,217);fill-rule:nonzero;"/>
    <path d="M42.5,37.5C39.2,37.5 36.5,34.8 36.5,31.5C36.5,28.2 39.2,25.5 42.5,25.5C45.8,25.5 48.5,28.2 48.5,31.5C48.5,34.8 45.8,37.5 42.5,37.5" style="fill:rgb(84,91,97);fill-rule:nonzero;"/>
    <circle cx="42.5" cy="31.5" r="2.3" style="fill:rgb(6,196,72);"/>
    <path d="M19.8,54.1C12.4,54.1 12.4,41.1 19.8,41.1L44.3,41.1C51.7,41.1 51.7,54.1 44.3,54.1L19.8,54.1" style="fill:rgb(239,255,217);fill-rule:nonzero;"/>
    <path d="M20.5,52.6C14.5,52.6 14.5,42.6 20.5,42.6L43.5,42.6C49.5,42.6 49.5,52.6 43.5,52.6L20.5,52.6" style="fill:rgb(137,150,122);fill-rule:nonzero;"/>
    <g>
        <g opacity="0.7">
            <path d="M21.2,50.7C21.2,51.9 19.2,51.9 19.2,50.7L19.2,44.6C19.2,43.4 21.2,43.4 21.2,44.6L21.2,50.7" style="fill:rgb(62,67,71);fill-rule:nonzero;"/>
            <path d="M25.9,50.7C25.9,51.9 23.9,51.9 23.9,50.7L23.9,44.6C23.9,43.4 25.9,43.4 25.9,44.6L25.9,50.7" style="fill:rgb(62,67,71);fill-rule:nonzero;"/>
            <path d="M30.6,50.7C30.6,51.9 28.6,51.9 28.6,50.7L28.6,44.6C28.6,43.4 30.6,43.4 30.6,44.6L30.6,50.7" style="fill:rgb(62,67,71);fill-rule:nonzero;"/>
            <path d="M35.4,50.7C35.4,51.9 33.4,51.9 33.4,50.7L33.4,44.6C33.4,43.4 35.4,43.4 35.4,44.6L35.4,50.7" style="fill:rgb(62,67,71);fill-rule:nonzero;"/>
            <path d="M40.1,50.7C40.1,51.9 38.1,51.9 38.1,50.7L38.1,44.6C38.1,43.4 40.1,43.4 40.1,44.6L40.1,50.7" style="fill:rgb(62,67,71);fill-rule:nonzero;"/>
            <path d="M44.8,50.7C44.8,51.9 42.8,51.9 42.8,50.7L42.8,44.6C42.8,43.4 44.8,43.4 44.8,44.6L44.8,50.7" style="fill:rgb(62,67,71);fill-rule:nonzero;"/>
        </g>
    </g>
    <circle cx="32" cy="37" r="2" style="fill:rgb(245,245,245);"/>
    <g transform="matrix(0.7071,-0.7071,0.7071,0.7071,-16.7765,33.4583)">
        <path d="M31.6,35L32.4,35L32.4,39L31.6,39L31.6,35Z" style="fill:rgb(84,91,97);fill-rule:nonzero;"/>
    </g>
</svg>
